<?xml version="1.0" encoding="UTF-8"?>
<!DOCTYPE svg PUBLIC "-//W3C//DTD SVG 1.1//EN" "http://www.w3.org/Graphics/SVG/1.1/DTD/svg11.dtd">
<svg version="1.2" width="56.9mm" height="8mm" viewBox="0 0 5690 800" preserveAspectRatio="xMidYMid" fill-rule="evenodd" stroke-width="28.222" stroke-linejoin="round" xmlns="http://www.w3.org/2000/svg" xmlns:ooo="http://xml.openoffice.org/svg/export" xmlns:xlink="http://www.w3.org/1999/xlink" xmlns:presentation="http://sun.com/xmlns/staroffice/presentation" xmlns:smil="http://www.w3.org/2001/SMIL20/" xmlns:anim="urn:oasis:names:tc:opendocument:xmlns:animation:1.0" xml:space="preserve">
 <defs class="ClipPathGroup">
  <clipPath id="presentation_clip_path" clipPathUnits="userSpaceOnUse">
   <rect x="0" y="0" width="5690" height="800"/>
  </clipPath>
  <clipPath id="presentation_clip_path_shrink" clipPathUnits="userSpaceOnUse">
   <rect x="5" y="0" width="5679" height="799"/>
  </clipPath>
 </defs>
 <defs class="TextShapeIndex">
  <g ooo:slide="id1" ooo:id-list="id3"/>
 </defs>
 <defs class="EmbeddedBulletChars">
  <g id="bullet-char-template-57356" transform="scale(0.00048828125,-0.00048828125)">
   <path d="M 580,1141 L 1163,571 580,0 -4,571 580,1141 Z"/>
  </g>
  <g id="bullet-char-template-57354" transform="scale(0.00048828125,-0.00048828125)">
   <path d="M 8,1128 L 1137,1128 1137,0 8,0 8,1128 Z"/>
  </g>
  <g id="bullet-char-template-10146" transform="scale(0.00048828125,-0.00048828125)">
   <path d="M 174,0 L 602,739 174,1481 1456,739 174,0 Z M 1358,739 L 309,1346 659,739 1358,739 Z"/>
  </g>
  <g id="bullet-char-template-10132" transform="scale(0.00048828125,-0.00048828125)">
   <path d="M 2015,739 L 1276,0 717,0 1260,543 174,543 174,936 1260,936 717,1481 1274,1481 2015,739 Z"/>
  </g>
  <g id="bullet-char-template-10007" transform="scale(0.00048828125,-0.00048828125)">
   <path d="M 0,-2 C -7,14 -16,27 -25,37 L 356,567 C 262,823 215,952 215,954 215,979 228,992 255,992 264,992 276,990 289,987 310,991 331,999 354,1012 L 381,999 492,748 772,1049 836,1024 860,1049 C 881,1039 901,1025 922,1006 886,937 835,863 770,784 769,783 710,716 594,584 L 774,223 C 774,196 753,168 711,139 L 727,119 C 717,90 699,76 672,76 641,76 570,178 457,381 L 164,-76 C 142,-110 111,-127 72,-127 30,-127 9,-110 8,-76 1,-67 -2,-52 -2,-32 -2,-23 -1,-13 0,-2 Z"/>
  </g>
  <g id="bullet-char-template-10004" transform="scale(0.00048828125,-0.00048828125)">
   <path d="M 285,-33 C 182,-33 111,30 74,156 52,228 41,333 41,471 41,549 55,616 82,672 116,743 169,778 240,778 293,778 328,747 346,684 L 369,508 C 377,444 397,411 428,410 L 1163,1116 C 1174,1127 1196,1133 1229,1133 1271,1133 1292,1118 1292,1087 L 1292,965 C 1292,929 1282,901 1262,881 L 442,47 C 390,-6 338,-33 285,-33 Z"/>
  </g>
  <g id="bullet-char-template-9679" transform="scale(0.00048828125,-0.00048828125)">
   <path d="M 813,0 C 632,0 489,54 383,161 276,268 223,411 223,592 223,773 276,916 383,1023 489,1130 632,1184 813,1184 992,1184 1136,1130 1245,1023 1353,916 1407,772 1407,592 1407,412 1353,268 1245,161 1136,54 992,0 813,0 Z"/>
  </g>
  <g id="bullet-char-template-8226" transform="scale(0.00048828125,-0.00048828125)">
   <path d="M 346,457 C 273,457 209,483 155,535 101,586 74,649 74,723 74,796 101,859 155,911 209,963 273,989 346,989 419,989 480,963 531,910 582,859 608,796 608,723 608,648 583,586 532,535 482,483 420,457 346,457 Z"/>
  </g>
  <g id="bullet-char-template-8211" transform="scale(0.00048828125,-0.00048828125)">
   <path d="M -4,459 L 1135,459 1135,606 -4,606 -4,459 Z"/>
  </g>
  <g id="bullet-char-template-61548" transform="scale(0.00048828125,-0.00048828125)">
   <path d="M 173,740 C 173,903 231,1043 346,1159 462,1274 601,1332 765,1332 928,1332 1067,1274 1183,1159 1299,1043 1357,903 1357,740 1357,577 1299,437 1183,322 1067,206 928,148 765,148 601,148 462,206 346,322 231,437 173,577 173,740 Z"/>
  </g>
 </defs>
 <g>
  <g id="id2" class="Master_Slide">
   <g id="bg-id2" class="Background"/>
   <g id="bo-id2" class="BackgroundObjects"/>
  </g>
 </g>
 <g class="SlideGroup">
  <g>
   <g id="container-id1">
    <g id="id1" class="Slide" clip-path="url(#presentation_clip_path)">
     <g class="Page">
      <g class="Graphic">
       <g id="id3">
        <rect class="BoundingBox" stroke="none" fill="none" x="0" y="0" width="5691" height="801"/>
        <path fill="rgb(0,0,0)" stroke="none" d="M 5370,7 C 5370,7 5405,7 5419,17 5419,17 5434,28 5445,60 L 5688,768 C 5688,768 5691,777 5688,785 5688,785 5685,792 5673,792 L 5570,792 C 5570,792 5558,792 5551,789 5551,789 5543,786 5539,774 L 5490,621 5205,621 5156,773 C 5156,773 5153,783 5147,787 5147,787 5141,792 5127,792 L 5024,792 C 5024,792 5012,792 5009,785 5009,785 5005,777 5009,768 L 5250,60 C 5250,60 5256,43 5261,33 5261,33 5267,23 5275,18 5275,18 5284,12 5295,9 5295,9 5306,7 5322,7 L 5370,7 5370,7 Z M 5349,158 L 5343,158 5297,313 5239,504 5454,504 5396,316 5349,158 5349,158 Z"/>
        <path fill="rgb(0,0,0)" stroke="none" d="M 3060,9 C 3060,9 3076,9 3081,13 3081,13 3087,16 3087,32 L 3087,322 3435,322 3435,32 C 3435,32 3435,18 3441,13 3441,13 3447,9 3460,9 L 3546,9 C 3546,9 3561,9 3566,13 3566,13 3571,16 3571,32 L 3571,768 C 3571,768 3571,784 3566,788 3566,788 3561,792 3546,792 L 3460,792 C 3460,792 3447,792 3441,787 3441,787 3435,783 3435,768 L 3435,440 3087,440 3087,768 C 3087,768 3087,784 3081,788 3081,788 3076,792 3060,792 L 2975,792 C 2975,792 2963,792 2956,787 2956,787 2949,783 2949,768 L 2949,32 C 2949,32 2949,18 2956,13 2956,13 2963,9 2975,9 L 3060,9 3060,9 Z"/>
        <path fill="rgb(0,0,0)" stroke="none" d="M 2719,9 C 2719,9 2731,9 2735,13 2735,13 2739,18 2739,30 L 2739,107 C 2739,107 2739,119 2735,123 2735,123 2731,127 2719,127 L 2507,127 2507,768 C 2507,768 2507,784 2502,788 2502,788 2496,792 2481,792 L 2393,792 C 2393,792 2380,792 2374,787 2374,787 2368,783 2368,768 L 2368,127 2160,127 C 2160,127 2147,127 2144,123 2144,123 2141,119 2141,107 L 2141,30 C 2141,30 2141,18 2144,13 2144,13 2147,9 2160,9 L 2719,9 2719,9 Z"/>
        <path fill="rgb(0,0,0)" stroke="none" d="M 1302,4 C 1521,4 1698,181 1698,399 1698,618 1521,795 1302,795 L 431,795 C 399,795 374,770 374,738 374,707 399,682 431,682 L 634,682 C 665,682 690,657 690,626 690,594 665,569 634,569 L 588,569 C 557,569 532,544 532,513 532,482 557,456 588,456 L 724,456 C 755,456 780,431 780,400 780,369 755,343 724,343 L 250,343 C 219,343 193,318 193,287 193,256 219,231 250,231 L 600,231 C 631,230 655,205 656,174 656,143 631,118 600,118 L 521,118 C 490,118 464,92 464,61 464,30 490,3 521,3 L 1302,4 1302,4 Z M 1239,136 L 1239,136 C 1118,136 1019,234 1019,355 L 1019,443 C 1019,565 1118,663 1239,663 1360,663 1459,565 1459,443 L 1459,355 C 1459,234 1360,136 1239,136 L 1239,136 1239,136 Z M 1314,343 C 1343,343 1367,367 1367,396 L 1367,403 C 1367,432 1343,456 1314,456 L 1149,456 C 1120,456 1096,432 1096,403 L 1096,396 C 1096,367 1120,343 1149,343 L 1314,343 1314,343 Z"/>
        <path fill="rgb(0,0,0)" stroke="none" d="M 253,682 C 283,682 306,706 306,735 L 306,742 C 306,771 283,795 253,795 L 58,795 C 29,795 5,771 5,742 L 5,735 C 5,706 29,682 58,682 L 253,682 253,682 Z"/>
        <path fill="rgb(0,0,0)" stroke="none" d="M 4362,8 C 4362,8 4377,8 4381,14 4381,14 4385,20 4385,34 L 4385,104 C 4385,104 4385,119 4381,124 4381,124 4377,129 4362,129 L 4065,129 C 4065,129 4022,129 4005,148 4005,148 3988,167 3988,203 L 3988,320 4325,320 C 4325,320 4340,320 4344,326 4344,326 4348,331 4348,347 L 4348,408 C 4348,408 4348,422 4344,428 4344,428 4340,434 4325,434 L 3988,434 3988,597 C 3988,597 3988,633 4006,652 4006,652 4024,670 4065,670 L 4369,670 C 4369,670 4385,670 4389,676 4389,676 4392,681 4392,697 L 4392,766 C 4392,766 4392,778 4388,785 4388,785 4383,792 4369,792 L 4050,792 C 4050,792 3991,792 3953,775 3953,775 3915,758 3892,730 3892,730 3869,702 3860,667 3860,667 3851,631 3851,592 L 3851,209 C 3851,209 3851,170 3861,134 3861,134 3872,97 3896,69 3896,69 3920,42 3958,25 3958,25 3996,8 4050,8 L 4362,8 4362,8 Z"/>
        <path fill="rgb(0,0,0)" stroke="none" d="M 4756,9 C 4756,9 4771,9 4777,13 4777,13 4783,16 4783,32 L 4783,768 C 4783,768 4783,784 4777,788 4777,788 4771,792 4756,792 L 4671,792 C 4671,792 4657,792 4651,787 4651,787 4645,783 4645,768 L 4645,32 C 4645,32 4645,18 4651,13 4651,13 4657,9 4671,9 L 4756,9 4756,9 Z"/>
        <path fill="rgb(0,0,0)" stroke="none" d="M 344,5 C 373,5 397,29 397,58 L 397,65 C 397,94 373,118 344,118 L 126,118 C 97,118 73,94 73,65 L 73,58 C 73,29 97,5 126,5 L 344,5 344,5 Z"/>
        <path fill="rgb(0,0,0)" stroke="none" d="M 411,456 C 441,456 464,480 464,509 L 464,516 C 464,545 441,569 411,569 L 292,569 C 262,569 239,545 239,516 L 239,509 C 239,480 262,456 292,456 L 411,456 411,456 Z"/>
       </g>
      </g>
     </g>
    </g>
   </g>
  </g>
 </g>
</svg>